<svg xmlns="http://www.w3.org/2000/svg" viewBox="0 0 1816 1536" width="100%" height="100%">
  <path d="M1703 1376L1701 1383L1698 1388L1698 1390L1696 1392L1695 1395L1689 1403L1683 1409L1675 1415L1665 1420L1663 1420L1657 1422L1656 1424L1663 1426L1668 1429L1670 1429L1672 1431L1675 1432L1683 1438L1689 1444L1695 1452L1700 1462L1700 1464L1702 1470L1704 1471L1706 1464L1709 1459L1709 1457L1711 1455L1712 1452L1718 1444L1724 1438L1732 1432L1742 1427L1744 1427L1750 1425L1751 1423L1744 1421L1739 1418L1737 1418L1735 1416L1732 1415L1724 1409L1718 1403L1712 1395L1707 1385L1707 1383L1705 1377Z" fill="#888c8d" />
  <path d="M243 1071L250 1076L255 1081L250 1076Z" fill="#808280" />
  <path d="M13 875L12 877L12 880L12 878Z" fill="#7f8081" />
  <path d="M836 221L776 286L673 331L555 357L445 343L321 348L91 404L91 474L170 474L172 459L251 439L431 421L492 373L520 364L550 370L486 401L439 448L413 497L380 603L349 543L280 499L230 491L20 495L42 555L84 595L16 862L13 912L207 912L216 929L188 929L250 1006L323 1066L410 1114L516 1048L601 965L663 863L693 756L742 697L716 838L653 966L552 1073L408 1163L252 1064L187 999L136 923L128 925L159 982L222 1051L217 1043L322 1119L405 1165L542 1087L522 1110L569 1074L660 975L725 845L747 753L761 631L755 506L783 470L802 422L809 364L832 293Z" fill="#8a5658" />
  <path d="M444 1088L446 1087L448 1089L446 1090Z" fill="#82817f" />
  <path d="M445 1082L447 1082L447 1085L444 1084Z" fill="#7f807e" />
  <path d="M428 1082L429 1080L431 1082Z" fill="#80807f" />
  <path d="M342 1071L344 1069L346 1071Z" fill="#81807c" />
  <path d="M406 1064L407 1068L405 1071L404 1068Z" fill="#858585" />
  <path d="M408 1059L409 1063L407 1065L406 1062Z" fill="#838383" />
  <path d="M411 1051L412 1054L410 1057L409 1054Z" fill="#848484" />
  <path d="M420 1043L418 1045L417 1047L416 1043Z" fill="#7f7e7c" />
  <path d="M418 1040L419 1038L421 1040Z" fill="#81817f" />
  <path d="M418 1032L419 1036L417 1039L418 1041L415 1048L413 1050L412 1052L411 1048L412 1045L414 1042L414 1040L415 1037L417 1034Z" fill="#868786" />
  <path d="M420 1026L421 1030L419 1033L418 1030Z" fill="#8b8c8b" />
  <path d="M667 773L661 782L662 784L661 787L660 785L661 789L659 790L660 794L657 805L652 814L642 844L622 886L604 916L575 955L536 996L504 1024L459 1056L409 1085L412 1087L422 1081L426 1082L425 1080L430 1079L429 1083L439 1081L444 1084L443 1086L445 1087L441 1088L437 1093L444 1088L446 1090L439 1095L433 1096L432 1099L416 1108L406 1111L384 1100L342 1074L345 1073L347 1075L345 1073L347 1067L349 1069L352 1065L354 1066L360 1062L362 1064L360 1066L367 1066L398 1084L404 1070L408 1072L406 1075L409 1075L409 1079L407 1079L410 1080L409 1082L520 788L607 787L643 780L664 772Z" fill="#21272a" />
  <path d="M743 508L745 528L747 537L748 545L749 557L749 564L748 578L748 595L746 591L746 587L743 577L741 574L741 572L740 569L738 567L738 565L736 563L734 558L729 551L720 541L712 534L704 529L704 526L706 526L712 524L715 522L717 522L724 518L726 518L730 516L732 514L739 511L741 509Z" fill="#a93537" />
  <path d="M514 362L512 364L494 369L476 378L465 385L452 396L417 394L360 396L299 404L251 413L144 441L144 466L142 468L140 467L103 467L103 414L106 411L132 401L193 384L234 374L298 362L368 354L387 353L453 354L494 358Z" fill="#bf2f30" />
  <path d="M816 338L817 341L815 345L813 343L814 341Z" fill="#828485" />
  <path d="M825 250L817 324L787 399L721 437L575 475L538 498L503 541L493 563L511 544L553 523L677 507L725 491L762 458L713 496L570 517L502 547L526 513L563 484L729 437L788 400L768 450L794 394L784 442L739 508L693 526L727 552L747 598L747 646L727 702L694 740L649 766L602 776L512 777L397 1080L286 1003L209 911L16 908L98 587L52 550L32 492L42 495L64 539L93 561L245 569L278 584L299 607L315 652L317 704L307 746L291 774L243 809L137 819L89 853L199 853L256 844L312 810L348 755L402 532L429 469L456 432L487 404L538 377L736 321L787 290Z" fill="#793234" />
  <path d="M164 717L163 719L163 721L163 719Z" fill="#a57171" />
  <path d="M717 670L715 672L715 674L714 678L716 672Z" fill="#a57371" />
  <path d="M197 587L195 588L193 587L113 588L113 592L105 623L103 627L89 684L89 688L87 692L86 701L83 709L82 718L90 690L96 663L98 659L111 608L113 595L116 590L193 593L188 618L184 630L182 642L173 675L171 688L168 696L165 715L165 712L173 685L173 681L176 668L178 664L178 661L184 641L188 624L188 620L191 612L191 608Z" fill="#aa7878" />
  <path d="M707 566L691 550L671 539L653 535L630 535L597 538L571 543L542 553L512 569L487 591L479 605L419 766L428 752L447 733L469 720L483 715L501 712L593 712L614 708L634 699L649 688L658 678L667 662L672 642L670 613L660 593L645 580L632 574L615 571L542 571L516 574L511 573L549 553L589 542L623 538L656 538L671 542L697 558L707 569L715 584L723 613L724 630L722 648L723 607L718 587Z" fill="#b0adad" />
  <path d="M530 676L530 674L531 671L533 668L533 666L534 663L536 660L536 658L539 649L541 646L541 644L543 638L545 635L545 633L547 627L549 624L549 622L550 619L552 616L552 614L553 611L555 608L555 606L558 603L605 603L613 604L620 606L624 608L627 610L634 617L637 623L638 627L638 644L636 651L631 660L622 669L616 673L614 673L609 676L606 677L597 679Z" fill="#1f2427" />
  <path d="M507 439L505 441L499 445L492 452L497 447L504 442Z" fill="#f3524f" />
  <path d="M772 381L744 399L721 410L697 418L619 434L575 447L544 462L524 476L514 485L494 508L476 539L456 588L451 605L437 638L418 691L477 541L495 510L519 483L542 466L582 447L617 437L675 426L722 412L752 397Z" fill="#ad8989" />
</svg>